<svg height="389pt" viewBox="0 -27 389.784 389" width="389pt" xmlns="http://www.w3.org/2000/svg"><g fill="#007aff"><path d="m245.785156 200.390625v-136c0-35.285156-28.714844-64-64-64h-32c-35.289062 0-64 28.714844-64 64v16h32v-16c0-17.648437 14.351563-32 32-32h32c17.648438 0 32 14.351563 32 32v40h-64c-35.289062 0-64 28.714844-64 64v16c0 35.289063 28.710938 64 64 64h32c16.734375 0 31.941406-6.511719 43.359375-17.0625 8.808594 10.414063 21.960938 17.0625 36.640625 17.0625h16v-32h-16c-8.824218 0-16-7.175781-16-16zm-64 16h-32c-17.648437 0-32-14.351563-32-32v-16c0-17.648437 14.351563-32 32-32h64v48c0 17.648437-14.351562 32-32 32zm0 0"/><path d="m309.785156 248.390625h48v48h32v-80h-80zm0 0"/><path d="m15.664062 266.609375-15.664062 27.894531 13.953125 7.832032c2.480469 1.390624 61.773437 34.046874 159.832031 34.046874 100.230469 0 150.832032-33.3125 152.933594-34.726562l13.203125-8.894531-17.722656-26.449219-13.289063 8.757812c-.445312.289063-45.558594 29.3125-135.132812 29.3125-89.121094 0-143.664063-29.671874-144.167969-29.949218zm0 0"/></g></svg>